# xmcd
# Copyright (C) 1995-1998 Ti Kan
#
# Track frame offsets:
#       150
#       30894
#       57098
#       84998
#       109606
#       153572
#       179138
#       207428
#
# Disc length: 3264 seconds
#
# Revision: 0
# Processed by: cddbd v1.5.2PL0 Copyright (c) Steve Scherf et al.
# Submitted via: CD-Import v1.0
#
DISCID=600cbe08
DTITLE=Kid Ikarus  - Promo
DYEAR=1900
DGENRE=
TTITLE0=Wwsd
TTITLE1=Grey Mountain
TTITLE2=I.k.a.r.u.s
TTITLE3=Bye Now Mr Conductor
TTITLE4=Sleeping Like A Dead Man
TTITLE5=Walking On Thin Ice
TTITLE6=Road To Ruin
TTITLE7=Alice
EXTD=
EXTT0=
EXTT1=
EXTT2=
EXTT3=
EXTT4=
EXTT5=
EXTT6=
EXTT7=
PLAYORDER=
